<?xml version="1.0" encoding="utf-8"?>
<svg xmlns="http://www.w3.org/2000/svg"
	xmlns:xlink="http://www.w3.org/1999/xlink"
	width="38px" height="30px" viewBox="0 0 19 15">
<path fillRule="evenodd" d="M 19 7.3C 19 7.3 19 7.7 19 7.7 19 7.7 19.01 7.72 19.01 7.72 19.01 7.72 19 7.73 19 7.73 19 7.73 19 8 19 8 19 8 18.73 8 18.73 8 18.73 8 11.72 15.01 11.72 15.01 11.72 15.01 10.99 14.28 10.99 14.28 10.99 14.28 17.27 8 17.27 8 17.27 8 0 8 0 8 0 8 0 7 0 7 0 7 17.27 7 17.27 7 17.27 7 10.99 0.72 10.99 0.72 10.99 0.72 11.72-0.01 11.72-0.01 11.72-0.01 18.73 7 18.73 7 18.73 7 19 7 19 7 19 7 19 7.27 19 7.27 19 7.27 19.01 7.28 19.01 7.28 19.01 7.28 19 7.3 19 7.3Z" fill="rgb(235,177,63)"/></svg>