<?xml version="1.0" encoding="utf-8"?>
<svg xmlns="http://www.w3.org/2000/svg"
	xmlns:xlink="http://www.w3.org/1999/xlink"
	width="48px" height="44px" viewBox="0 0 24 22">
<path fillRule="evenodd" d="M 22.21 11.3C 22.21 11.3 11.98 22 11.98 22 11.98 22 1.76 11.3 1.76 11.3-0.59 8.93-0.59 5.1 1.76 2.74 4.1 0.37 7.89 0.37 10.24 2.74 10.24 2.74 11.98 4.88 11.98 4.88 11.98 4.88 13.73 2.74 13.73 2.74 16.07 0.37 19.87 0.37 22.21 2.74 24.55 5.1 24.55 8.93 22.21 11.3ZM 15.72 3.08C 15.72 3.08 11.98 6.39 11.98 6.39 11.98 6.39 9.24 3.08 9.24 3.08 7.8 1.62 4.07 1 2.04 4.08 0.91 5.8 0.6 7.93 2.04 9.39 2.04 9.39 11.98 20 11.98 20 11.98 20 21.92 9.39 21.92 9.39 23.35 7.93 23.35 5.55 21.92 4.08 20.48 2.62 17.15 1.62 15.72 3.08Z" fill="rgb(251,251,251)"/></svg>